PathFileType	4	(X/Y/Z)	Patient4_TMGait_0pt7_01_left_42.trc.trc
DataRate	CameraRate	NumFrames	NumMarkers	Units	OrigDataRate	OrigDataStartFrame	OrigNumFrames
84.848484848485	84.848484848485	4	33	mm	84.848484848485	1	       141
Frame#	Time	Sacral			L.Shoulder			Chest			R.Shoulder			Neck			R.ASIS			L.ASIS			R.Thigh.Superior			R.Thigh.Lateral			R.Thigh.Inferior			R.Patella			L.Thigh.Superior			L.Thigh.Lateral			L.Thigh.Inferior			L.Patella			L.Shank.Superior			L.Shank.Lateral			L.Shank.Inferior			R.Shank.Superior			R.Shank.Lateral			R.Shank.Inferior			R.Heel			R.Midfoot.Superior			R.Midfoot.Lateral			R.Toe			L.Heel			L.Midfoot.Lateral			L.Midfoot.Superior			L.Toe			L.Elbow			L.Wrist			R.Elbow			R.Wrist			
		X1	Y1	Z1	X2	Y2	Z2	X3	Y3	Z3	X4	Y4	Z4	X5	Y5	Z5	X6	Y6	Z6	X7	Y7	Z7	X8	Y8	Z8	X9	Y9	Z9	X10	Y10	Z10	X11	Y11	Z11	X12	Y12	Z12	X13	Y13	Z13	X14	Y14	Z14	X15	Y15	Z15	X16	Y16	Z16	X17	Y17	Z17	X18	Y18	Z18	X19	Y19	Z19	X20	Y20	Z20	X21	Y21	Z21	X22	Y22	Z22	X23	Y23	Z23	X24	Y24	Z24	X25	Y25	Z25	X26	Y26	Z26	X27	Y27	Z27	X28	Y28	Z28	X29	Y29	Z29	X30	Y30	Z30	X31	Y31	Z31	X32	Y32	Z32	X33	Y33	Z33	

1	48.620000000000	853.974153280786	1017.675989376365	522.930090904699	1043.499685096519	1428.462126440337	314.618103387305	1162.241308388737	1350.770330097765	462.029546991263	1110.900834847734	1436.891125731062	642.681124864387	1074.003519752212	1490.965310276571	465.364204745178	1086.737085613362	941.122014793718	618.702164996693	1048.411605941848	961.435286160200	347.169617056236	1121.813731526981	741.884191021044	590.189264437412	1038.018368993552	634.886936087560	649.166768387532	1110.677303693559	583.287047656777	564.896073503187	1109.735647366523	498.266214532993	568.140452591434	1136.966682304820	791.633442700576	375.964508075898	1097.940337330877	666.163465002802	294.101885279375	1205.164382298985	605.737673500397	351.739805891861	1222.802349057219	516.992649765773	341.525837850453	1160.096974995282	446.336045465792	334.545652450192	1020.482477996312	394.427123473603	288.661961489083	1019.663523493050	263.099558415231	341.063980294843	1087.601736584766	409.321112590374	572.815428474784	1022.954077368901	300.435665651498	632.217111985598	1068.775740447132	209.951433871543	564.194383257988	941.081148889216	43.201815118750	531.306676344625	1113.481442917905	96.910558448265	561.572900100113	1026.647979357703	36.870825835814	602.742984088744	1234.824815779844	42.968833095269	585.033250333535	835.182605303272	185.571627322240	380.674709692863	894.607006101952	141.993373479305	300.428944523559	999.652232272878	156.180979384499	320.631318933562	1083.018393580384	47.554780689013	293.022990118589	960.208126900183	1081.971903351980	216.127484488775	1094.310177964836	854.366071340417	214.761459203798	1128.157527077767	1094.083345580362	783.027015853556	1287.377601493185	892.005129442621	730.355180092216	
2	48.631785714286	852.036499350416	1018.428762031054	524.243687722744	1041.757734151876	1428.521788883139	315.445255089809	1160.927257039534	1350.682196796739	462.374361774556	1110.669557148895	1436.996303722821	643.232129579640	1073.013706129222	1491.122938558619	466.118898790165	1084.867206425525	941.296466768285	619.436413852477	1045.875304835674	961.712703740990	347.886086615220	1117.333808609240	741.277777521395	590.887735499119	1032.531470845061	635.059103275968	649.923333972021	1104.527366929407	582.759319820598	565.827834226209	1102.587742867341	497.910337956492	569.037776145332	1135.236167582492	794.145800692213	376.143232604343	1097.380605464165	668.048580132413	294.080392098652	1205.561741433505	609.278229438414	351.067405981134	1224.903587851307	521.831276031589	340.596075787802	1165.915960679371	449.746789979200	333.382334102412	1029.991115541767	389.961893997415	288.480758868021	1038.119120518501	258.977115366689	339.504065916818	1080.136513697696	409.267522796343	573.538584322711	1014.956028569399	300.562277677482	632.723615035550	1060.635286307696	209.955946938409	564.652905304119	932.436182985899	43.273029079538	531.307530605452	1104.995348186226	97.059532574781	561.935479183100	1017.953320493121	36.929268001578	602.730612651736	1226.140434980122	42.634091337742	585.209271233560	860.757999096236	169.765762222627	380.495337616853	921.266590413930	131.212946679716	298.976063803305	1024.755187181377	151.934131054783	318.147572191058	1114.079347339787	50.023814550623	288.090996680265	955.298065895868	1082.085188129255	219.749121301277	1070.819859692511	847.112381624480	218.176103405245	1138.137096926753	1095.594843685679	782.571750240436	1308.833623556370	908.723996777167	722.964799517079	
3	48.643571428571	850.131690412736	1019.167045028184	525.512346998096	1040.061486642949	1428.580321367884	316.244842306921	1159.637729246311	1350.581690760049	462.703958844893	1110.435942116530	1437.086919074503	643.760661361017	1072.037418444702	1491.271274911802	466.856602350680	1083.013812365495	941.469228200299	620.150500871667	1043.383400214438	961.953081264955	348.580302617336	1112.903741560752	740.683114031358	591.570268770131	1027.089835365669	635.229863740665	650.673555264930	1098.446763378730	582.232084107257	566.758107344444	1095.518649277899	497.565512392934	569.943206480599	1133.445376691358	796.490997257910	376.288083792490	1096.679536613839	669.780616673102	294.060018260263	1205.747441308693	612.593563078519	350.449812263591	1226.765246990650	526.496476493947	339.742722787671	1171.506974816602	453.051640843691	332.304911283765	1039.462598539200	385.454532101139	288.198714775840	1056.437043635551	254.957702497533	337.950181777954	1072.748062115747	409.218627616176	574.260647387156	1007.027367449372	300.689243854840	633.221967228809	1052.576654796412	209.963514034015	565.108462882435	923.885837331447	43.350468297012	531.308924804577	1096.592999158342	97.189163965817	562.270443528021	1009.358049726256	36.986238388236	602.716108561866	1217.554211353852	42.310253916519	585.376524969996	886.291557193129	154.219915997075	380.103616353617	947.922651638956	120.671843534726	297.431414685035	1049.735414989824	147.870236450094	315.720468397685	1144.925708007705	52.723999495344	283.433368565242	950.322726951914	1082.257132102808	223.279710893699	1047.635665946729	840.319213040302	221.511456003851	1147.959622628406	1097.116678788814	782.048062505191	1329.811492178995	925.498152158723	715.565805457488	
4	48.655357142857	848.287010279220	1019.868741422230	526.688322377734	1038.438683330518	1428.635023541737	316.987780322684	1158.383058526326	1350.453614996923	462.997560289081	1110.186451984191	1437.142483374721	644.239811473975	1071.074323969455	1491.396769212521	467.558056977659	1081.188664504990	941.636151344163	620.820503346107	1040.977228122580	962.115952971381	349.221892246612	1108.545129959439	740.102584177864	592.222672247707	1021.698115301879	635.398397598030	651.407147073559	1092.447836355560	581.699355529439	567.681338681664	1088.543717407436	497.236197138832	570.857698709488	1131.520798637697	798.489179349910	376.370839096168	1095.679517432120	671.201690436377	294.025963793971	1205.500918841863	615.449421429810	349.927365515063	1228.136953181393	530.813084169300	339.036277214767	1176.645600191523	456.157131997980	331.380730086111	1048.877070448423	380.872775785461	287.735926692976	1074.530436734197	251.176800838030	336.410063307740	1065.441294905500	409.176281387500	574.977812014028	999.167272552471	300.818648336449	633.705877053980	1044.606469794216	209.977389138023	565.558078200200	915.444163567971	43.438334077618	531.311991959363	1088.283057885253	97.287553500093	562.559146836864	1000.880499973407	37.039880014272	602.698280883668	1209.083684370285	42.008479161118	585.527860284538	911.842774872762	139.216870392173	379.338383387883	974.659983188848	110.634457941732	295.738725367061	1074.548207920630	144.212279021737	313.403635839314	1175.420895372601	55.945243200184	279.301331435036	945.165390071516	1082.572736269166	226.617765643321	1024.978923068088	834.425681499198	224.716824733857	1157.527198571689	1098.677478962431	781.347198541945	1349.849708646645	942.542216876537	708.096444917506	
